<svg id="Truck" xmlns="http://www.w3.org/2000/svg" xmlns:xlink="http://www.w3.org/1999/xlink" width="225" height="225" viewBox="0 0 225 225" style="transform: scale(-1, 1); transform-origin: center;">
  <defs>
    <style>
      .cls-1, .cls-4, .cls-5 {
        fill: none;
      }

      .cls-2 {
        clip-path: url(#clip-path);

      }

      .cls-3 {
        fill: transparent;
      }

      .cls-4, .cls-5, .cls-6 {
        stroke: #5c5c59;
        stroke-miterlimit: 10;
      }

      .cls-4 {
        stroke-width: 1.7px;
      }

      .cls-5, .cls-6 {
        stroke-width: 2.55px;
      }

      .cls-6 {
        fill: #5c5c59;
      }
    </style>
    <clipPath id="clip-path">
      <rect class="cls-1" width="225" height="225"/>
    </clipPath>
  </defs>
  <g class="cls-2">
    <rect class="cls-3" width="225" height="225"/>
    <g>
      <path class="cls-4" d="M70.19,147.57a16.26,16.26,0,0,1,4.46-11.17H61.06a16.26,16.26,0,0,1,4.46,11.17Z"/>
      <rect class="cls-5" x="25.43" y="66.72" width="122.56" height="63.25"/>
      <polygon class="cls-4" points="190.43 108.31 184.34 94.15 166.5 94.15 166.5 108.31 190.43 108.31"/>
      <circle class="cls-6" cx="48.25" cy="148.16" r="10.99"/>
      <circle class="cls-3" cx="48.25" cy="148.16" r="6.9"/>
      <circle class="cls-6" cx="163.25" cy="148.16" r="10.99"/>
      <circle class="cls-3" cx="163.25" cy="148.16" r="6.9"/>
      <path class="cls-4" d="M176.35,136.57a17.35,17.35,0,0,1,4,15.45h19.59V136.57Z"/>
      <path class="cls-4" d="M145.74,148.16a17.52,17.52,0,0,1,35,0"/>
      <path class="cls-5" d="M198.48,109.51l-2.18-1.71-7.89-18.28a3.8,3.8,0,0,0-3.5-2.3H155.34v38a24.08,24.08,0,0,1,24,4.76h20.6V112.5A3.82,3.82,0,0,0,198.48,109.51Z"/>
      <path class="cls-4" d="M31.76,142a17.21,17.21,0,0,1,3.08-5.42H25.08V142Z"/>
      <circle class="cls-6" cx="87.72" cy="148.17" r="10.99"/>
      <circle class="cls-3" cx="87.72" cy="148.17" r="6.9"/>
      <circle class="cls-3" cx="87.72" cy="148.16" r="6.9"/>
      <path class="cls-4" d="M104.21,142a17.61,17.61,0,0,0-3.08-5.42h49a17.26,17.26,0,0,0-4,15.45H129.61l-9-10Z"/>
    </g>
  </g>
</svg>
