<?xml version="1.0" encoding="UTF-8" standalone="no"?>
<!-- Created with Inkscape (http://www.inkscape.org/) -->

<svg
   xmlns:dc="http://purl.org/dc/elements/1.1/"
   xmlns:cc="http://creativecommons.org/ns#"
   xmlns:rdf="http://www.w3.org/1999/02/22-rdf-syntax-ns#"
   xmlns:svg="http://www.w3.org/2000/svg"
   xmlns="http://www.w3.org/2000/svg"
   xmlns:sodipodi="http://sodipodi.sourceforge.net/DTD/sodipodi-0.dtd"
   xmlns:inkscape="http://www.inkscape.org/namespaces/inkscape"
   version="1.1"
   width="319.276"
   height="279.61874"
   id="svg2"
   xml:space="preserve"
   inkscape:version="0.48.4 r9939"
   sodipodi:docname="AJAX1.svg"><sodipodi:namedview
     pagecolor="#ffffff"
     bordercolor="#666666"
     borderopacity="1"
     objecttolerance="10"
     gridtolerance="10"
     guidetolerance="10"
     inkscape:pageopacity="0"
     inkscape:pageshadow="2"
     inkscape:window-width="1280"
     inkscape:window-height="1004"
     id="namedview9"
     showgrid="false"
     fit-margin-top="0.2"
     fit-margin-left="0.2"
     fit-margin-right="0.2"
     fit-margin-bottom="0.2"
     inkscape:zoom="2.0062924"
     inkscape:cx="143.79701"
     inkscape:cy="108.24302"
     inkscape:window-x="-8"
     inkscape:window-y="-8"
     inkscape:window-maximized="1"
     inkscape:current-layer="svg2"
     showguides="true"
     inkscape:guide-bbox="true" /><defs
     id="defs52" /><metadata
     id="metadata4"><rdf:RDF><cc:Work
         rdf:about=""><dc:format>image/svg+xml</dc:format><dc:type
           rdf:resource="http://purl.org/dc/dcmitype/StillImage" /><dc:title /></cc:Work></rdf:RDF></metadata><path
     style="fill:#cd1e00;fill-opacity:1;fill-rule:nonzero;stroke:none"
     d="m 159.638,0.2 c 3.75736,1.3e-4 7.51377,1.87636 9.71878,5.65625 l 148.18797,256.81249 c 1.08125,1.71125 1.53125,3.61374 1.53125,5.59375 0,6.12 -4.94627,11.15625 -11.15629,11.15625 l -296.56343,0 C 5.14627,279.41874 0.2,274.38249 0.2,268.26249 c 0,-1.98001 0.45,-3.8825 1.53125,-5.59375 L 149.91922,5.85625 C 152.12423,2.07636 155.88064,0.20013 159.638,0.2 z"
     id="path11"
     inkscape:connector-curvature="0"
     sodipodi:nodetypes="cccssssccc" /><path
     inkscape:connector-curvature="0"
     style="fill:#ffffff;fill-opacity:1;fill-rule:nonzero;stroke:none"
     d="m 159.638,56.12835 109.574,189.71997 -219.1475,0 z"
     id="path13"
     sodipodi:nodetypes="cccc" /><path
     inkscape:connector-curvature="0"
     style="fill:#000000;fill-rule:nonzero;stroke:none"
     d="m 157.70138,185.36912 c -1.17,1.62 -2.7,2.97 -4.32,4.23 l -15.12,10.35125 c -0.27,0.0888 -0.45,0 -0.45,-0.27125 0,-0.09 0,-0.09 0.0913,-0.18 0,0 0,-0.17875 0.0888,-0.17875 2.34,-2.52 4.23125,-5.49 5.49,-8.64 0.81,-2.16 1.26,-4.59 1.26,-6.84125 0,-0.54 0,-0.71875 0,-1.17 0,-2.34 -0.53875,-4.59 -1.52875,-6.75 -0.99,-2.16 -2.43125,-4.04875 -4.14,-5.57875 -1.80125,-1.53125 -3.69125,-2.79 -5.94125,-3.60125 -2.07,-0.81 -4.14,-1.16875 -6.29875,-1.16875 -0.36,0 -0.90125,0 -1.44125,0.0888 -1.979,0.18 -3.96025,0.54125 -5.84863,1.17 -1.89087,0.54125 -3.60112,1.35125 -5.04025,2.52125 -0.271,0.26875 -0.54087,0.0888 -0.63,-0.0913 -0.18062,-0.18 0,-0.27 0.0891,-0.45 l 15.74975,-12.68875 c 1.8,-1.35 3.78,-2.52125 5.94,-3.24125 2.88,-1.26 6.03125,-1.70875 9.18125,-1.26 2.87875,0.36125 5.66876,1.35125 8.18876,2.88 4.05125,2.34 7.02,6.12125 8.46,10.53125 0.72125,2.34 1.26,4.68 1.26,6.92875 0,4.95 -1.8,9.63125 -5.04,13.41 z"
     id="path15" /><path
     inkscape:connector-curvature="0"
     style="fill:#000000;fill-rule:nonzero;stroke:none"
     d="m 100.822,190.76912 c 0,-0.27 -0.17937,-0.36 -0.36012,-0.36 -0.36013,0 -0.90088,-0.17875 -1.25975,-0.17875 -7.82963,0 -14.13088,6.29875 -14.13088,14.12875 0,7.83125 6.30125,14.13125 14.13088,14.13125 6.66012,0 12.50975,-4.68125 13.85987,-11.25 l 0,-0.0913 c 0,-0.18 -0.0904,-0.26875 -0.36012,-0.36 -7.19963,-1.8 -12.24,-8.45875 -11.87988,-16.02 z"
     id="path17" /><path
     inkscape:connector-curvature="0"
     style="fill:#000000;fill-rule:nonzero;stroke:none"
     d="m 87.86188,192.03037 c 0.36,-0.36 0.8105,-0.63 1.25975,-0.99 0.631,-0.54125 1.261,-0.90125 2.07025,-1.44125 1.71025,-0.81 3.59987,-1.70875 5.67012,-2.25 4.14063,-0.72 8.28013,0.27 11.78963,2.52125 2.43037,1.43875 4.32,3.41875 5.67012,5.84875 0.62988,1.62125 1.25975,3.24125 1.61988,4.95 0.26975,1.08 0.4505,2.07 0.4505,3.06 0,1.35125 -0.26975,2.61 -0.62988,4.05 -0.4505,1.89 -1.25975,3.60125 -2.4305,5.31 -0.62987,1.08125 -1.53075,2.07125 -2.42912,2.88 l -3.33138,2.79 c -0.17937,0.0913 -0.17937,0.18 -0.17937,0.18 0,0.18 0,0.27 0.17937,0.27 0.0904,0.18 0.18075,0.18 0.36013,0.18 0.26975,0 0.4505,-0.18 0.62987,-0.27 l 17.64013,-11.34 c 0.45125,-0.27 0.99,-0.63 1.35,-1.16875 1.53,-1.53 2.79,-3.15 4.05125,-4.86125 0.26875,-0.26875 0.53875,-0.80875 0.62875,-1.17 1.26,-2.52 1.98,-5.31 2.25,-8.18875 0,-0.27125 0,-0.45125 0,-0.90125 0,-2.34 -0.45,-4.76875 -1.35,-7.02 -0.99,-2.61 -2.51875,-5.03875 -4.59,-6.93 -1.35,-1.25875 -2.7,-2.16 -4.40875,-2.87875 -2.251,-0.90125 -4.58988,-1.53 -7.02038,-1.53 -0.271,0 -0.54075,-0.0913 -0.72012,-0.0913 -2.34013,0 -4.59113,0.45125 -6.83963,1.26125 -2.43037,0.71875 -4.50075,1.98 -6.571,3.51 l -14.75962,12.24 c -0.36,0.35875 -0.72013,0.71875 -0.99,1.25875 0,0.0913 0,0.18 0,0.36125 0,0.0888 0,0.26875 0,0.26875 0.18075,0.0913 0.26987,0.18 0.36012,0.18 0,0 0.18075,-0.0888 0.26988,-0.0888 z"
     id="path19" /><path
     inkscape:connector-curvature="0"
     style="fill:#000000;fill-rule:nonzero;stroke:none"
     d="m 164.45138,182.21912 c -0.18,0.09 -0.45,0 -0.45,-0.26875 0,-0.0912 0.09,-0.0912 0.09,-0.27125 5.58125,-3.86875 8.73125,-10.16875 8.73125,-16.83 0,-11.51875 -9.36125,-20.7 -20.79125,-20.7 -4.32,0 -8.46,1.26 -11.96875,3.78 -0.18,0.0913 -0.54125,0 -0.54125,-0.26875 0,-0.0913 0.18125,-0.27 0.18125,-0.27 l 15.92875,-12.42125 c 14.67125,-11.34 35.91,-0.99125 35.91,17.37125 0,7.46875 -3.78,14.39875 -9.9,18.54 l -17.19,11.33875 z"
     id="path21" /><path
     inkscape:connector-curvature="0"
     style="fill:#000000;fill-rule:nonzero;stroke:none"
     d="m 180.47138,130.19787 c -0.09,-0.18 -0.27,-0.27 -0.27,-0.45 -0.09,-2.6075 -0.18,-7.55787 -0.36,-12.41875 -0.0888,-7.4695 8.1,-7.55987 8.19125,-2.07037 l 0.26875,19.80037 0,0.18 c 0,0.18125 -0.26875,0.36125 -0.54,0.36125 -0.09,0 -0.18,0 -0.36,-0.18 -1.70875,-2.34125 -4.1375,-4.14 -6.93,-5.2225 z"
     id="path23" /><path
     inkscape:connector-curvature="0"
     style="fill:#000000;fill-rule:nonzero;stroke:none"
     d="m 188.39138,169.89037 0.27,72.80874 -7.91875,0 -0.27125,-68.03874 7.56125,-4.95 c 0.26875,-0.0913 0.35875,0 0.35875,0.18 z"
     id="path25" /></svg>